<?xml version="1.0" encoding="UTF-8"?>
<svg id="Layer_2" data-name="Layer 2" xmlns="http://www.w3.org/2000/svg" viewBox="0 0 500 129.73">
  <defs>
    <style>
      .cls-1 {
        fill: #fff;
      }

      .cls-2 {
        fill: #65c979;
      }
    </style>
  </defs>
  <g id="Layer_1-2" data-name="Layer 1">
    <path class="cls-1" d="M65.81,0C29.63-.34,.4,28.02,0,63.85c-.4,36.72,28.06,65.5,65.15,65.87,35.18,.35,64.23-28.54,64.56-64.22C130.04,29.62,101.48,.34,65.81,0ZM32.15,115.29c-.06,.35-.17,.69-.26,1.04-.36,.04-.71,.09-1.07,.13,0-1.41-.19-2.85,.03-4.23,1.2-7.63,.79-15.17-1.01-22.66-1.83-7.64-5.26-14.47-10.55-20.29-1.26-1.38-1.17-2.2,.33-3.2,6.47-4.34,13.35-7.7,21.11-8.93,.81-.13,1.68,.18,2.53,.29-.04,.23-.08,.46-.12,.69-5.8,2.08-11.6,4.16-17.57,6.3,1.21,2.89,1.71,4.99-.43,6.89-.34,.3,.05,1.83,.5,2.54,8.19,12.88,8.9,26.91,6.5,41.43Zm3.82,2.63c1.54-10.04,2.15-19.88-.43-29.6-1.22-4.6-3.1-9.06-5.06-13.41-1.64-3.64-.12-8.44,3.65-9.79,2.47-.88,5.02-1.52,7.51-2.35,1.95-.66,2.63,.22,2.81,2.01,.99,9.85,1.22,19.68-.2,29.54-1.15,8.01-3.87,15.43-7.52,22.57-.19,.38-.51,.69-.77,1.04Zm3.02,2.94c13.43-25.49,11.4-51.87,4.24-78.71,8.3-2.89,16.63-4.18,25.22-3.64,2.52,.16,5.06,.5,7.52,1.06,.85,.19,1.5,1.28,1.97,2.45-7.71-.68-15.14-1.66-22.55,.06q-1.43,6.78-6.87,9.55c.63,3.77,1.32,7.58,1.89,11.41,2.92,19.59,1.06,38.5-8.12,56.34-.62,1.22-1.02,3.28-3.31,1.49Zm6.64,.76c2.41-7.48,5.35-14.91,7.17-22.6,3.31-13.97,2.44-28.09-.17-42.1-.4-2.16-.24-3.55,1.72-5.05,1.59-1.23,2.31-3.55,3.56-5.27,.59-.81,1.56-1.98,2.32-1.95,5.5,.2,10.99,.6,16.47,1.1,.58,.05,1.52,1.12,1.54,1.73,.66,27.91-6.33,52.76-28.7,71.42-.97,.81-2.04,1.51-3.08,2.24-.36,.26-.77,.45-.83,.49Zm2.15,2.46c6.99-4.87,12.74-10.59,17.5-17.29,11.08-15.62,15.95-33.26,15.95-52.17,0-10.37-1.16-20.74-1.83-31.57,1.88,.11,4.36,.15,6.81,.43,13.4,1.56,25.24,6.45,34.44,16.63,1.66,1.84,2.61,4.34,3.49,6.83-8.72-8.86-18.91-14.9-31.08-18.33-.85,5.17-3.93,7.93-9.26,8.6,.11,2.19,.21,4.32,.33,6.45,1.11,18.96-1.42,37.27-10.12,54.39-4.98,9.79-11.58,18.36-20.02,25.49-1.86,1.57-3.64,2.18-6.21,.55Zm73.64-34.47c-.49-.98-.8-1.56-1.07-2.16-3.93-8.83-12.88-12.44-21.94-8.85-10.6,4.2-16.82,17.22-13.38,28.09,1.76,5.55,5.43,9.32,11.66,11.41-12.9,7.4-26.04,10.14-39.85,8.12,5.06-6.24,10.54-12.09,14.96-18.64,11.04-16.37,15.28-34.85,15.42-54.39,.03-3.9-.22-7.8-.19-11.69,0-.77,.58-1.94,1.2-2.21,3.14-1.37,5.5-3.46,7.07-7.24,4.19,2,8.41,3.62,12.21,5.94,3.84,2.34,7.33,5.29,10.85,8.13,6.43,5.2,9.22,11.84,8.58,20.26-.6,7.94-1.94,15.56-5.53,23.24Z"/>
    <path class="cls-2" d="M87.06,100.28c-.05,7.58,4.32,13.67,10.9,14.9,1.17,.22,2.82-.04,3.72-.75,6.56-5.11,11.96-11.31,16.3-18.4,.4-.66,.72-1.49,.75-2.25,.28-8.05-7.66-14.85-15.61-13.42-9.02,1.62-16.01,10.28-16.07,19.92Z"/>
    <g>
      <path class="cls-1" d="M169.79,65.8v-8.31l19.67-24.49,7.2-7.87-7.05,.37h-18.33v-9.43h38.22v8.31l-20.41,25.24-6.68,7.12,6.61-.37h21.97v9.43h-41.19Z"/>
      <path class="cls-1" d="M212.9,65.8V16.07h24.42c10.98,0,15.36,5.57,15.36,12.62,0,8.46-7.57,11.21-15.29,11.58,12.62,.44,17.07,5.49,17.07,12.54,0,9.28-6.9,12.99-17.44,12.99h-24.12Zm10.61-40.3v10.69h11.13c4.16,0,6.83-1.34,6.83-5.34s-2.75-5.34-6.98-5.34h-10.99Zm0,19.22v11.65h11.95c5.64,0,8.09-1.85,8.09-5.86s-2.89-5.79-7.94-5.79h-12.1Z"/>
      <path class="cls-1" d="M254.79,56.15l6.98-8.16c3.34,6.24,10.54,8.98,16.48,8.98,4.3,0,7.42-1.34,7.42-4.75,0-3.86-3.27-5.12-9.87-6.46l-4.83-1.04c-7.72-1.56-14.99-4.97-14.99-14.4s8.39-14.84,18.48-14.84c9.35,0,16.85,3.56,21.01,9.5l-7.2,8.09c-3.27-5.2-9.06-8.02-14.77-8.02-3.79,0-6.53,1.63-6.53,4.53,0,3.64,3.19,4.97,8.39,6.16l5.64,1.34c9.28,2.15,15.59,5.94,15.59,14.84,0,9.5-8.02,14.62-18.78,14.62-9.57,0-18.41-3.12-23.01-10.39Z"/>
      <path class="cls-1" d="M308.31,40.86c0-14.77,8.98-25.53,25.01-25.53,10.54,0,18.48,4.9,21.97,13.14l-8.98,6.83c-1.34-5.57-5.79-9.8-12.99-9.8-9.2,0-13.58,6.23-13.58,15.36s4.82,15.51,13.29,15.51c6.9,0,10.47-3.41,12.47-8.68h-13.66v-8.53h23.83v26.65h-7.05l-2.52-18.11c-.52,11.73-6.61,18.7-17.22,18.7-11.95,0-20.56-8.68-20.56-25.53Z"/>
      <path class="cls-1" d="M359.5,65.8V29.43h10.61v11.43c1.19-6.09,4.75-12.17,11.73-12.17,5.34,0,8.31,3.41,8.31,9.13,0,3.93-1.19,7.05-2.08,8.46h-10.24c1.34-1.34,2.6-3.93,2.6-6.01s-.96-3.64-3.27-3.64c-3.64,0-7.05,3.93-7.05,9.95v19.22h-10.61Z"/>
      <path class="cls-1" d="M388.58,47.62c0-11.06,7.12-18.93,18.18-18.93s18.55,7.87,18.55,18.93-7.2,18.93-18.55,18.93-18.18-7.79-18.18-18.93Zm25.98,0c0-7.5-3.12-10.32-7.64-10.32s-7.57,2.82-7.57,10.32,3.12,10.31,7.57,10.31,7.64-2.89,7.64-10.31Z"/>
      <path class="cls-1" d="M426.66,54.82V29.43h10.61v21.67c0,4.45,1.19,7.2,6.09,7.2s6.61-2.82,6.61-8.76V29.43h10.61v36.37h-10.61v-10.17c-1.26,5.79-4.75,10.91-12.1,10.91-6.9,0-11.21-4.23-11.21-11.73Z"/>
      <path class="cls-1" d="M463.85,79.61V29.43h10.61v10.32c1.04-5.86,4.01-11.13,11.58-11.13,8.46,0,13.95,6.9,13.95,19s-5.49,18.93-14.4,18.93c-7.57,0-10.17-5.2-11.13-11.06v24.12h-10.61Zm17.52-21.3c4.82,0,7.87-3.78,7.87-10.69s-3.04-10.69-7.87-10.69c-4.45,0-6.9,2.75-6.9,8.68v3.93c0,5.94,2.45,8.76,6.9,8.76Z"/>
    </g>
    <g>
      <path class="cls-2" d="M169.8,109.98v-17.72h3.17v17.72h-3.17Z"/>
      <path class="cls-2" d="M175.94,96.56h2.93v2.33h.06c.8-1.63,2.15-2.49,4.21-2.49,2.97,0,4.67,1.88,4.67,4.99v8.6h-3.06v-7.99c0-1.92-.91-3-2.75-3s-3.01,1.33-3.01,3.29v7.7h-3.06v-13.42Z"/>
      <path class="cls-2" d="M196.77,109.98h-3.35l-4.76-13.42h3.25l3.18,10.55h.06l3.17-10.55h3.19l-4.74,13.42Z"/>
      <path class="cls-2" d="M214.15,105.99c-.39,2.48-2.78,4.19-5.91,4.19-3.97,0-6.42-2.63-6.42-6.85s2.47-6.95,6.31-6.95,6.14,2.57,6.14,6.63v1.01h-9.39v.18c0,2.16,1.38,3.6,3.43,3.6,1.47,0,2.62-.7,2.97-1.81h2.87Zm-9.25-4.01h6.36c-.06-1.94-1.32-3.22-3.13-3.22s-3.09,1.3-3.23,3.22Z"/>
      <path class="cls-2" d="M221.37,96.37c3.09,0,5.26,1.67,5.32,4.1h-2.85c-.1-1.13-1.07-1.84-2.53-1.84s-2.36,.65-2.36,1.63c0,.75,.63,1.26,1.95,1.57l2.36,.54c2.7,.63,3.73,1.64,3.73,3.62,0,2.49-2.33,4.18-5.7,4.18s-5.46-1.66-5.66-4.15h3.01c.19,1.22,1.18,1.89,2.78,1.89s2.53-.63,2.53-1.62c0-.79-.49-1.2-1.83-1.52l-2.43-.59c-2.46-.58-3.71-1.84-3.71-3.75,0-2.43,2.16-4.06,5.39-4.06Z"/>
      <path class="cls-2" d="M232.86,93.56v3h2.54v2.37h-2.54v7.07c0,1.11,.52,1.63,1.62,1.63,.29,0,.71-.04,.91-.06v2.34c-.33,.07-.96,.12-1.61,.12-2.85,0-3.98-1.03-3.98-3.62v-7.49h-1.83v-2.37h1.83v-3h3.06Z"/>
      <path class="cls-2" d="M237.43,96.56h2.93v2.36h.06c.59-1.56,2.05-2.52,3.82-2.52,1.89,0,3.25,.96,3.76,2.66h.06c.65-1.64,2.26-2.66,4.19-2.66,2.64,0,4.38,1.77,4.38,4.45v9.14h-3.06v-8.39c0-1.67-.88-2.62-2.46-2.62s-2.6,1.14-2.6,2.78v8.23h-2.97v-8.56c0-1.51-.93-2.44-2.42-2.44s-2.64,1.19-2.64,2.85v8.15h-3.06v-13.42Z"/>
      <path class="cls-2" d="M270.94,105.99c-.39,2.48-2.78,4.19-5.91,4.19-3.97,0-6.42-2.63-6.42-6.85s2.47-6.95,6.31-6.95,6.14,2.57,6.14,6.63v1.01h-9.39v.18c0,2.16,1.38,3.6,3.43,3.6,1.47,0,2.62-.7,2.97-1.81h2.87Zm-9.25-4.01h6.36c-.06-1.94-1.32-3.22-3.13-3.22s-3.09,1.3-3.23,3.22Z"/>
      <path class="cls-2" d="M273.17,96.56h2.93v2.33h.06c.8-1.63,2.15-2.49,4.21-2.49,2.97,0,4.67,1.88,4.67,4.99v8.6h-3.06v-7.99c0-1.92-.91-3-2.75-3s-3.01,1.33-3.01,3.29v7.7h-3.06v-13.42Z"/>
      <path class="cls-2" d="M291.26,93.56v3h2.54v2.37h-2.54v7.07c0,1.11,.52,1.63,1.62,1.63,.29,0,.71-.04,.91-.06v2.34c-.33,.07-.96,.12-1.61,.12-2.85,0-3.98-1.03-3.98-3.62v-7.49h-1.83v-2.37h1.83v-3h3.06Z"/>
      <path class="cls-2" d="M300.88,96.37c3.09,0,5.26,1.67,5.32,4.1h-2.85c-.1-1.13-1.07-1.84-2.53-1.84s-2.36,.65-2.36,1.63c0,.75,.63,1.26,1.95,1.57l2.36,.54c2.7,.63,3.73,1.64,3.73,3.62,0,2.49-2.33,4.18-5.7,4.18s-5.46-1.66-5.66-4.15h3.01c.19,1.22,1.18,1.89,2.78,1.89s2.53-.63,2.53-1.62c0-.79-.49-1.2-1.83-1.52l-2.43-.59c-2.46-.58-3.71-1.84-3.71-3.75,0-2.43,2.16-4.06,5.39-4.06Z"/>
      <path class="cls-2" d="M316.77,104.99c.2,1.63,1.83,2.7,3.99,2.7s3.62-1.06,3.62-2.53c0-1.28-.91-2.01-3.14-2.54l-2.3-.54c-3.27-.75-4.81-2.32-4.81-4.85,0-3.14,2.74-5.27,6.59-5.27s6.48,2.11,6.56,5.23h-3.02c-.15-1.66-1.54-2.65-3.56-2.65s-3.35,.98-3.35,2.46c0,1.18,.89,1.87,3.07,2.38l2.04,.47c3.6,.82,5.12,2.31,5.12,4.95,0,3.36-2.7,5.48-6.99,5.48s-6.76-2.01-6.89-5.28h3.07Z"/>
      <path class="cls-2" d="M329.63,93.17c0-.96,.77-1.68,1.72-1.68s1.72,.73,1.72,1.68-.76,1.68-1.72,1.68-1.72-.74-1.72-1.68Zm.2,3.39h3.06v13.42h-3.06v-13.42Z"/>
      <path class="cls-2" d="M335.58,96.56h2.93v2.36h.06c.59-1.56,2.05-2.52,3.82-2.52,1.89,0,3.25,.96,3.76,2.66h.06c.65-1.64,2.26-2.66,4.19-2.66,2.64,0,4.38,1.77,4.38,4.45v9.14h-3.06v-8.39c0-1.67-.88-2.62-2.46-2.62s-2.6,1.14-2.6,2.78v8.23h-2.97v-8.56c0-1.51-.93-2.44-2.42-2.44s-2.64,1.19-2.64,2.85v8.15h-3.06v-13.42Z"/>
      <path class="cls-2" d="M370.26,103.27c0,4.2-2.16,6.85-5.54,6.85-1.93,0-3.44-.87-4.21-2.37h-.06v6.64h-3.06v-17.84h2.99v2.26h.06c.74-1.47,2.36-2.41,4.24-2.41,3.41,0,5.59,2.65,5.59,6.86Zm-3.13,0c0-2.61-1.33-4.32-3.35-4.32s-3.34,1.74-3.34,4.32,1.34,4.31,3.34,4.31,3.35-1.68,3.35-4.31Z"/>
      <path class="cls-2" d="M372.4,91.44h3.06v18.54h-3.06v-18.54Z"/>
      <path class="cls-2" d="M378.02,93.17c0-.96,.77-1.68,1.72-1.68s1.72,.73,1.72,1.68-.76,1.68-1.72,1.68-1.72-.74-1.72-1.68Zm.2,3.39h3.06v13.42h-3.06v-13.42Z"/>
      <path class="cls-2" d="M384.68,98.93h-1.83v-2.37h1.83v-1.2c0-2.54,1.18-3.62,4.07-3.62,.54,0,1.03,.04,1.48,.12v2.22c-.27-.06-.61-.1-.98-.1-1.09,0-1.55,.45-1.55,1.51v1.07h2.54v2.37h-2.51v11.05h-3.06v-11.05Z"/>
      <path class="cls-2" d="M391.92,93.17c0-.96,.77-1.68,1.72-1.68s1.72,.73,1.72,1.68-.76,1.68-1.72,1.68-1.72-.74-1.72-1.68Zm.2,3.39h3.06v13.42h-3.06v-13.42Z"/>
      <path class="cls-2" d="M409.56,105.99c-.39,2.48-2.78,4.19-5.91,4.19-3.97,0-6.42-2.63-6.42-6.85s2.47-6.95,6.31-6.95,6.14,2.57,6.14,6.63v1.01h-9.39v.18c0,2.16,1.38,3.6,3.43,3.6,1.47,0,2.62-.7,2.97-1.81h2.87Zm-9.25-4.01h6.36c-.06-1.94-1.32-3.22-3.13-3.22s-3.09,1.3-3.23,3.22Z"/>
      <path class="cls-2" d="M411.16,103.26c0-4.16,2.25-6.85,5.57-6.85,1.94,0,3.45,.92,4.18,2.41h.07v-7.38h3.06v18.54h-3v-2.28h-.06c-.72,1.5-2.27,2.43-4.24,2.43-3.35,0-5.59-2.69-5.59-6.86Zm3.13,.01c0,2.64,1.33,4.31,3.35,4.31s3.35-1.71,3.35-4.31-1.34-4.32-3.35-4.32-3.35,1.69-3.35,4.32Z"/>
    </g>
  </g>
</svg>