<?xml version="1.0" encoding="UTF-8"?>
<svg id="Layer_2" data-name="Layer 2" xmlns="http://www.w3.org/2000/svg" viewBox="0 0 377.76 98.01">
  <defs>
    <style>
      .cls-1 {
        fill: #65c979;
      }

      .cls-2 {
        fill: #001d3d;
      }
    </style>
  </defs>
  <g id="Layer_1-2" data-name="Layer 1">
    <path class="cls-2" d="M49.72,0C22.39-.26,.3,21.17,0,48.24c-.3,27.74,21.2,49.49,49.22,49.77,26.58,.27,48.53-21.57,48.78-48.52C98.25,22.38,76.67,.26,49.72,0ZM24.29,87.1c-.04,.27-.13,.52-.2,.79-.27,.03-.54,.07-.81,.1,0-1.07-.14-2.15,.02-3.19,.91-5.77,.59-11.46-.76-17.12-1.38-5.77-3.97-10.93-7.97-15.33-.95-1.04-.88-1.66,.25-2.42,4.89-3.28,10.08-5.82,15.95-6.75,.61-.1,1.27,.14,1.91,.22-.03,.17-.06,.35-.09,.52-4.38,1.57-8.76,3.14-13.27,4.76,.91,2.18,1.29,3.77-.33,5.21-.25,.23,.04,1.38,.38,1.92,6.19,9.73,6.72,20.33,4.91,31.3Zm2.88,1.98c1.17-7.58,1.62-15.02-.32-22.36-.92-3.47-2.35-6.84-3.83-10.13-1.24-2.75-.09-6.38,2.76-7.39,1.87-.66,3.8-1.15,5.67-1.78,1.47-.5,1.98,.16,2.12,1.52,.75,7.44,.92,14.87-.15,22.32-.87,6.05-2.92,11.65-5.68,17.05-.15,.29-.38,.52-.58,.78Zm2.28,2.22c10.14-19.26,8.61-39.19,3.21-59.47,6.27-2.18,12.57-3.16,19.06-2.75,1.91,.12,3.82,.38,5.68,.8,.64,.14,1.13,.97,1.49,1.85-5.83-.51-11.44-1.26-17.03,.04q-1.08,5.12-5.19,7.22c.47,2.85,.99,5.73,1.42,8.62,2.2,14.8,.8,29.09-6.13,42.57-.47,.92-.77,2.48-2.5,1.13Zm5.02,.57c1.82-5.65,4.04-11.26,5.42-17.08,2.5-10.56,1.85-21.22-.13-31.81-.3-1.63-.18-2.68,1.3-3.82,1.2-.93,1.74-2.68,2.69-3.98,.45-.62,1.18-1.5,1.75-1.48,4.15,.15,8.3,.46,12.44,.83,.44,.04,1.15,.85,1.16,1.31,.5,21.08-4.78,39.86-21.68,53.96-.73,.61-1.54,1.14-2.32,1.69-.27,.19-.58,.34-.63,.37Zm1.62,1.86c5.28-3.68,9.63-8,13.22-13.07,8.37-11.8,12.05-25.13,12.05-39.42,0-7.83-.88-15.67-1.38-23.85,1.42,.09,3.29,.11,5.14,.33,10.12,1.18,19.07,4.87,26.02,12.57,1.26,1.39,1.97,3.28,2.64,5.16-6.59-6.7-14.29-11.25-23.48-13.85-.64,3.9-2.97,5.99-7,6.5,.08,1.65,.16,3.26,.25,4.88,.84,14.33-1.07,28.16-7.65,41.09-3.76,7.4-8.75,13.87-15.12,19.26-1.41,1.19-2.75,1.65-4.69,.41Zm55.64-26.04c-.37-.74-.61-1.18-.81-1.63-2.97-6.67-9.73-9.4-16.57-6.69-8.01,3.17-12.71,13.01-10.11,21.22,1.33,4.2,4.1,7.04,8.81,8.62-9.74,5.59-19.67,7.66-30.1,6.14,3.82-4.72,7.96-9.13,11.3-14.08,8.34-12.37,11.55-26.33,11.65-41.09,.02-2.94-.17-5.89-.14-8.83,0-.58,.44-1.47,.91-1.67,2.37-1.04,4.15-2.61,5.34-5.47,3.16,1.51,6.35,2.74,9.23,4.49,2.9,1.77,5.54,4,8.19,6.14,4.86,3.93,6.97,8.95,6.49,15.31-.45,6-1.47,11.76-4.18,17.56Z"/>
    <path class="cls-1" d="M65.78,75.76c-.03,5.73,3.26,10.33,8.24,11.26,.89,.17,2.13-.03,2.81-.56,4.96-3.86,9.03-8.54,12.32-13.9,.31-.5,.55-1.12,.57-1.7,.21-6.08-5.79-11.22-11.79-10.14-6.82,1.22-12.09,7.77-12.14,15.05Z"/>
    <g>
      <g>
        <path class="cls-2" d="M128.28,49.71v-6.28l14.86-18.5,5.44-5.95-5.33,.28h-13.85v-7.12h28.88v6.28l-15.42,19.07-5.05,5.38,4.99-.28h16.6v7.12h-31.12Z"/>
        <path class="cls-2" d="M160.85,49.71V12.14h18.45c8.3,0,11.61,4.21,11.61,9.53,0,6.39-5.72,8.47-11.55,8.75,9.53,.34,12.9,4.15,12.9,9.48,0,7.01-5.21,9.81-13.18,9.81h-18.22Zm8.02-30.45v8.07h8.41c3.14,0,5.16-1.01,5.16-4.04s-2.07-4.04-5.27-4.04h-8.3Zm0,14.52v8.8h9.03c4.26,0,6.11-1.4,6.11-4.43s-2.19-4.37-6-4.37h-9.14Z"/>
        <path class="cls-2" d="M192.5,42.42l5.27-6.17c2.52,4.71,7.96,6.79,12.45,6.79,3.25,0,5.61-1.01,5.61-3.59,0-2.92-2.47-3.87-7.46-4.88l-3.65-.79c-5.83-1.18-11.33-3.76-11.33-10.88s6.34-11.21,13.96-11.21c7.07,0,12.73,2.69,15.87,7.18l-5.44,6.11c-2.47-3.93-6.84-6.06-11.16-6.06-2.86,0-4.93,1.23-4.93,3.42,0,2.75,2.41,3.76,6.34,4.65l4.26,1.01c7.01,1.62,11.78,4.48,11.78,11.21,0,7.18-6.06,11.05-14.19,11.05-7.23,0-13.91-2.36-17.38-7.85Z"/>
        <path class="cls-2" d="M232.94,30.87c0-11.16,6.79-19.29,18.9-19.29,7.96,0,13.96,3.7,16.6,9.93l-6.79,5.16c-1.01-4.21-4.37-7.4-9.81-7.4-6.95,0-10.26,4.71-10.26,11.61s3.64,11.72,10.04,11.72c5.21,0,7.91-2.58,9.42-6.56h-10.32v-6.45h18v20.13h-5.33l-1.91-13.68c-.39,8.86-4.99,14.13-13.01,14.13-9.03,0-15.53-6.56-15.53-19.29Z"/>
        <path class="cls-2" d="M271.6,49.71V22.24h8.02v8.64c.9-4.6,3.59-9.2,8.86-9.2,4.04,0,6.28,2.58,6.28,6.9,0,2.97-.9,5.33-1.57,6.39h-7.74c1.01-1.01,1.96-2.97,1.96-4.54s-.73-2.75-2.47-2.75c-2.75,0-5.33,2.97-5.33,7.52v14.52h-8.02Z"/>
        <path class="cls-2" d="M293.58,35.98c0-8.36,5.38-14.3,13.74-14.3s14.02,5.95,14.02,14.3-5.44,14.3-14.02,14.3-13.74-5.89-13.74-14.3Zm19.63,0c0-5.66-2.36-7.79-5.78-7.79s-5.72,2.13-5.72,7.79,2.35,7.79,5.72,7.79,5.78-2.19,5.78-7.79Z"/>
        <path class="cls-2" d="M322.35,41.41V22.24h8.02v16.38c0,3.37,.9,5.44,4.6,5.44s4.99-2.13,4.99-6.62v-15.2h8.02v27.48h-8.02v-7.68c-.95,4.38-3.59,8.24-9.14,8.24-5.22,0-8.47-3.2-8.47-8.86Z"/>
        <path class="cls-2" d="M350.45,60.14V22.24h8.02v7.79c.79-4.43,3.03-8.41,8.75-8.41,6.39,0,10.54,5.21,10.54,14.36s-4.15,14.3-10.88,14.3c-5.72,0-7.68-3.93-8.41-8.36v18.22h-8.02Zm13.23-16.09c3.64,0,5.94-2.86,5.94-8.07s-2.3-8.08-5.94-8.08c-3.37,0-5.22,2.08-5.22,6.56v2.97c0,4.49,1.85,6.62,5.22,6.62Z"/>
      </g>
      <g>
        <path class="cls-1" d="M128.28,83.09v-13.39h2.39v13.39h-2.39Z"/>
        <path class="cls-1" d="M132.93,72.95h2.22v1.76h.05c.6-1.23,1.62-1.88,3.18-1.88,2.25,0,3.53,1.42,3.53,3.77v6.49h-2.31v-6.04c0-1.45-.69-2.26-2.08-2.26s-2.27,1-2.27,2.49v5.82h-2.31v-10.14Z"/>
        <path class="cls-1" d="M148.67,83.09h-2.53l-3.6-10.14h2.46l2.4,7.97h.05l2.39-7.97h2.41l-3.58,10.14Z"/>
        <path class="cls-1" d="M161.79,80.07c-.3,1.88-2.1,3.16-4.46,3.16-3,0-4.85-1.99-4.85-5.18s1.87-5.25,4.77-5.25,4.64,1.94,4.64,5.01v.76h-7.1v.14c0,1.63,1.04,2.72,2.59,2.72,1.11,0,1.98-.53,2.24-1.36h2.17Zm-6.99-3.03h4.81c-.05-1.47-.99-2.43-2.37-2.43s-2.34,.98-2.44,2.43Z"/>
        <path class="cls-1" d="M167.25,72.81c2.34,0,3.97,1.26,4.02,3.1h-2.15c-.07-.85-.81-1.39-1.91-1.39s-1.78,.49-1.78,1.23c0,.57,.47,.96,1.47,1.19l1.78,.41c2.04,.47,2.82,1.24,2.82,2.74,0,1.88-1.76,3.15-4.3,3.15s-4.13-1.25-4.28-3.14h2.27c.14,.92,.89,1.43,2.1,1.43s1.91-.47,1.91-1.22c0-.59-.37-.91-1.38-1.15l-1.84-.45c-1.86-.44-2.8-1.39-2.8-2.83,0-1.84,1.63-3.07,4.07-3.07Z"/>
        <path class="cls-1" d="M175.93,70.69v2.26h1.92v1.79h-1.92v5.34c0,.83,.39,1.23,1.22,1.23,.22,0,.54-.03,.69-.05v1.77c-.25,.06-.72,.09-1.22,.09-2.15,0-3.01-.78-3.01-2.74v-5.66h-1.38v-1.79h1.38v-2.26h2.31Z"/>
        <path class="cls-1" d="M179.38,72.95h2.22v1.78h.05c.45-1.18,1.55-1.9,2.88-1.9,1.43,0,2.46,.72,2.84,2.01h.04c.49-1.24,1.71-2.01,3.16-2.01,1.99,0,3.31,1.34,3.31,3.36v6.9h-2.31v-6.34c0-1.26-.67-1.98-1.86-1.98s-1.97,.86-1.97,2.1v6.22h-2.24v-6.47c0-1.14-.71-1.85-1.83-1.85s-1.99,.9-1.99,2.15v6.16h-2.31v-10.14Z"/>
        <path class="cls-1" d="M204.7,80.07c-.3,1.88-2.1,3.16-4.46,3.16-3,0-4.85-1.99-4.85-5.18s1.87-5.25,4.77-5.25,4.64,1.94,4.64,5.01v.76h-7.1v.14c0,1.63,1.04,2.72,2.59,2.72,1.11,0,1.98-.53,2.24-1.36h2.17Zm-6.99-3.03h4.81c-.05-1.47-.99-2.43-2.37-2.43s-2.34,.98-2.44,2.43Z"/>
        <path class="cls-1" d="M206.38,72.95h2.22v1.76h.05c.6-1.23,1.62-1.88,3.18-1.88,2.25,0,3.53,1.42,3.53,3.77v6.49h-2.31v-6.04c0-1.45-.69-2.26-2.08-2.26s-2.27,1-2.27,2.49v5.82h-2.31v-10.14Z"/>
        <path class="cls-1" d="M220.05,70.69v2.26h1.92v1.79h-1.92v5.34c0,.83,.39,1.23,1.22,1.23,.22,0,.54-.03,.69-.05v1.77c-.25,.06-.72,.09-1.22,.09-2.15,0-3.01-.78-3.01-2.74v-5.66h-1.38v-1.79h1.38v-2.26h2.31Z"/>
        <path class="cls-1" d="M227.32,72.81c2.34,0,3.97,1.26,4.02,3.1h-2.15c-.07-.85-.81-1.39-1.91-1.39s-1.78,.49-1.78,1.23c0,.57,.47,.96,1.47,1.19l1.78,.41c2.04,.47,2.82,1.24,2.82,2.74,0,1.88-1.76,3.15-4.3,3.15s-4.13-1.25-4.28-3.14h2.27c.14,.92,.89,1.43,2.1,1.43s1.91-.47,1.91-1.22c0-.59-.37-.91-1.38-1.15l-1.84-.45c-1.86-.44-2.8-1.39-2.8-2.83,0-1.84,1.63-3.07,4.07-3.07Z"/>
        <path class="cls-1" d="M239.32,79.32c.15,1.23,1.38,2.04,3.02,2.04s2.74-.8,2.74-1.91c0-.96-.69-1.52-2.38-1.92l-1.73-.41c-2.47-.57-3.64-1.75-3.64-3.67,0-2.38,2.07-3.98,4.98-3.98s4.9,1.6,4.95,3.95h-2.28c-.11-1.25-1.16-2-2.69-2s-2.53,.74-2.53,1.86c0,.89,.68,1.41,2.32,1.8l1.54,.35c2.72,.62,3.87,1.74,3.87,3.74,0,2.54-2.04,4.14-5.28,4.14s-5.1-1.52-5.21-3.99h2.32Z"/>
        <path class="cls-1" d="M249.04,70.39c0-.72,.58-1.27,1.3-1.27s1.3,.55,1.3,1.27-.57,1.27-1.3,1.27-1.3-.56-1.3-1.27Zm.15,2.56h2.31v10.14h-2.31v-10.14Z"/>
        <path class="cls-1" d="M253.54,72.95h2.22v1.78h.05c.45-1.18,1.55-1.9,2.88-1.9,1.43,0,2.46,.72,2.84,2.01h.04c.49-1.24,1.71-2.01,3.16-2.01,1.99,0,3.31,1.34,3.31,3.36v6.9h-2.31v-6.34c0-1.26-.67-1.98-1.86-1.98s-1.97,.86-1.97,2.1v6.22h-2.24v-6.47c0-1.14-.71-1.85-1.83-1.85s-1.99,.9-1.99,2.15v6.16h-2.31v-10.14Z"/>
        <path class="cls-1" d="M279.74,78.02c0,3.17-1.63,5.18-4.18,5.18-1.46,0-2.6-.66-3.18-1.79h-.05v5.02h-2.31v-13.48h2.26v1.71h.04c.56-1.11,1.78-1.82,3.2-1.82,2.58,0,4.22,2,4.22,5.19Zm-2.37,0c0-1.98-1-3.27-2.53-3.27s-2.52,1.32-2.52,3.27,1.01,3.26,2.52,3.26,2.53-1.27,2.53-3.26Z"/>
        <path class="cls-1" d="M281.35,69.08h2.31v14.01h-2.31v-14.01Z"/>
        <path class="cls-1" d="M285.6,70.39c0-.72,.58-1.27,1.3-1.27s1.3,.55,1.3,1.27-.57,1.27-1.3,1.27-1.3-.56-1.3-1.27Zm.15,2.56h2.31v10.14h-2.31v-10.14Z"/>
        <path class="cls-1" d="M290.63,74.74h-1.38v-1.79h1.38v-.91c0-1.92,.89-2.74,3.07-2.74,.41,0,.78,.03,1.12,.09v1.68c-.2-.05-.46-.07-.74-.07-.82,0-1.17,.34-1.17,1.14v.81h1.92v1.79h-1.89v8.35h-2.31v-8.35Z"/>
        <path class="cls-1" d="M296.1,70.39c0-.72,.58-1.27,1.3-1.27s1.3,.55,1.3,1.27-.58,1.27-1.3,1.27-1.3-.56-1.3-1.27Zm.15,2.56h2.31v10.14h-2.31v-10.14Z"/>
        <path class="cls-1" d="M309.43,80.07c-.3,1.88-2.1,3.16-4.46,3.16-3,0-4.85-1.99-4.85-5.18s1.87-5.25,4.77-5.25,4.64,1.94,4.64,5.01v.76h-7.1v.14c0,1.63,1.04,2.72,2.59,2.72,1.11,0,1.98-.53,2.24-1.36h2.17Zm-6.99-3.03h4.81c-.05-1.47-.99-2.43-2.37-2.43s-2.34,.98-2.44,2.43Z"/>
        <path class="cls-1" d="M310.64,78.02c0-3.15,1.7-5.18,4.21-5.18,1.47,0,2.61,.7,3.15,1.82h.06v-5.58h2.31v14.01h-2.26v-1.73h-.05c-.55,1.13-1.72,1.84-3.2,1.84-2.53,0-4.22-2.03-4.22-5.19Zm2.37,0c0,2,1,3.26,2.53,3.26s2.53-1.29,2.53-3.26-1.01-3.27-2.53-3.27-2.53,1.28-2.53,3.27Z"/>
      </g>
    </g>
  </g>
</svg>